<svg width="512" height="512" viewBox="0 0 512 512" fill="none" xmlns="http://www.w3.org/2000/svg">
<g clip-path="url(#clip0_105_875)">
<path fill-rule="evenodd" clip-rule="evenodd" d="M403.207 304.819H291.062C300.316 277.051 305.234 253.679 306.045 233.751C307.958 186.738 285.76 168.131 266.802 160.79C266.009 160.478 265.184 160.257 264.342 160.13C249.653 157.809 244.423 164.72 240.958 172.53L240.503 173.554C239.995 174.676 239.664 175.869 239.52 177.092C234.832 217.197 217.707 254.829 190.546 284.707V508.757C193.576 509.867 196.671 510.79 199.813 511.522C200.664 511.723 201.534 511.83 202.408 511.843C211.796 511.943 222.986 511.994 235.892 511.994C248.766 511.994 263.343 511.942 279.52 511.843H385.168C391.345 511.844 397.412 510.204 402.748 507.091C408.083 503.978 412.496 499.503 415.534 494.125C418.573 488.747 420.128 482.658 420.041 476.481C419.954 470.304 418.227 464.261 415.038 458.971C422.089 453.63 426.844 445.805 428.336 437.086C429.828 428.366 427.946 419.406 423.072 412.024C429.915 406.221 434.255 398.002 435.188 389.079C436.121 380.156 433.575 371.217 428.081 364.124C432.899 359.225 436.162 353.011 437.459 346.263C438.756 339.516 438.031 332.535 435.373 326.199C432.715 319.862 428.244 314.453 422.521 310.65C416.798 306.847 410.078 304.82 403.207 304.824V304.819ZM167.1 103.681C166.39 101.493 165.066 99.5544 163.286 98.0966C161.506 96.6389 159.345 95.723 157.06 95.458L124.3 91.689L110.6 61.717C109.648 59.6207 108.112 57.8429 106.177 56.5961C104.241 55.3493 101.987 54.6863 99.685 54.6863C97.3826 54.6863 95.129 55.3493 93.1934 56.5961C91.2578 57.8429 89.7221 59.6207 88.77 61.717L75.07 91.689L42.311 95.458C40.0256 95.7204 37.8638 96.6341 36.083 98.0905C34.3022 99.5468 32.9776 101.484 32.2668 103.672C31.556 105.86 31.4892 108.206 32.0741 110.431C32.659 112.656 33.8711 114.666 35.566 116.221L59.848 138.521L53.311 170.838C52.8595 173.091 53.0638 175.427 53.8997 177.567C54.7356 179.708 56.168 181.564 58.027 182.915C59.8859 184.266 62.0935 185.056 64.3876 185.19C66.6818 185.324 68.9663 184.797 70.97 183.672L99.682 167.461L128.4 183.672C130.403 184.802 132.689 185.333 134.985 185.202C137.282 185.07 139.492 184.281 141.352 182.929C143.213 181.577 144.646 179.718 145.48 177.575C146.315 175.431 146.516 173.093 146.059 170.839L139.522 138.522L163.804 116.222C165.497 114.667 166.708 112.659 167.292 110.436C167.876 108.212 167.809 105.868 167.099 103.682L167.1 103.681ZM479.734 103.681C480.445 105.867 480.512 108.211 479.928 110.434C479.344 112.658 478.134 114.666 476.441 116.221L452.157 138.521L458.694 170.838C459.151 173.092 458.95 175.43 458.115 177.573C457.281 179.717 455.848 181.575 453.988 182.927C452.127 184.279 449.917 185.068 447.621 185.2C445.325 185.332 443.039 184.801 441.036 183.671L412.324 167.46L383.61 183.671C381.607 184.801 379.321 185.332 377.025 185.201C374.728 185.069 372.518 184.28 370.658 182.928C368.797 181.576 367.364 179.717 366.53 177.574C365.695 175.43 365.494 173.092 365.951 170.838L372.488 138.521L348.206 116.221C346.511 114.666 345.299 112.656 344.714 110.431C344.129 108.206 344.196 105.86 344.907 103.672C345.618 101.484 346.942 99.5468 348.723 98.0905C350.504 96.6341 352.666 95.7204 354.951 95.458L387.7 91.689L401.406 61.717C402.358 59.6209 403.893 57.8432 405.829 56.5965C407.764 55.3498 410.017 54.6868 412.32 54.6868C414.622 54.6868 416.875 55.3498 418.81 56.5965C420.746 57.8432 422.281 59.6209 423.233 61.717L436.939 91.689L469.69 95.458C471.976 95.7226 474.137 96.6382 475.917 98.0961C477.697 99.5539 479.02 101.492 479.73 103.681H479.734ZM336.777 58.7C336.066 56.5091 334.742 54.5675 332.962 53.1045C331.183 51.6416 329.022 50.7184 326.735 50.444L284.561 45.632L266.915 6.99C265.952 4.90545 264.413 3.14015 262.479 1.90286C260.545 0.665578 258.297 0.00805664 256.001 0.00805664C253.704 0.00805664 251.456 0.665578 249.522 1.90286C247.588 3.14015 246.049 4.90545 245.086 6.99L227.438 45.629L185.266 50.441C182.982 50.709 180.823 51.6265 179.045 53.0847C177.267 54.5428 175.944 56.4804 175.234 58.6676C174.524 60.8548 174.456 63.1998 175.039 65.4243C175.622 67.6489 176.83 69.6596 178.521 71.218L209.787 99.94L201.369 141.54C200.914 143.794 201.116 146.131 201.951 148.273C202.786 150.416 204.219 152.273 206.079 153.625C207.94 154.976 210.149 155.764 212.445 155.896C214.74 156.028 217.025 155.497 219.028 154.367L256 133.512L292.972 154.369C294.975 155.499 297.26 156.029 299.555 155.897C301.85 155.766 304.06 154.977 305.92 153.626C307.78 152.275 309.213 150.417 310.048 148.275C310.883 146.133 311.085 143.796 310.63 141.542L302.214 99.942L333.48 71.218C335.172 69.6668 336.383 67.6619 336.968 65.442C337.553 63.2221 337.488 60.8808 336.78 58.697L336.777 58.7ZM166.546 306.99C164.433 303.63 161.502 300.861 158.028 298.941C154.554 297.021 150.65 296.013 146.681 296.011H63.853C57.6266 296.017 51.6566 298.492 47.2531 302.894C42.8497 307.296 40.3725 313.266 40.365 319.492V488.5C40.3703 494.729 42.8463 500.701 47.2496 505.107C51.653 509.513 57.6242 511.992 63.853 512H146.681C150.649 511.998 154.552 510.991 158.026 509.072C161.5 507.154 164.431 504.387 166.546 501.029V306.99ZM70.716 340.09C70.716 336.907 71.9803 333.855 74.2308 331.605C76.4812 329.354 79.5334 328.09 82.716 328.09H91.523C94.7056 328.09 97.7579 329.354 100.008 331.605C102.259 333.855 103.523 336.907 103.523 340.09C103.523 343.273 102.259 346.325 100.008 348.575C97.7579 350.826 94.7056 352.09 91.523 352.09H82.717C81.1411 352.09 79.5805 351.78 78.1245 351.177C76.6685 350.574 75.3455 349.69 74.2311 348.576C73.1167 347.461 72.2327 346.138 71.6296 344.682C71.0265 343.226 70.716 341.666 70.716 340.09Z" fill="#F5655A"/>
</g>
<defs>
<clipPath id="clip0_105_875">
<rect width="512" height="512" fill="white"/>
</clipPath>
</defs>
</svg>
