<svg width="185" height="184" viewBox="0 0 185 184" fill="none" xmlns="http://www.w3.org/2000/svg">
<path d="M53.8672 129.375C53.8672 131.157 52.4109 132.625 50.5859 132.625C48.761 132.625 47.3047 131.157 47.3047 129.375C47.3047 127.593 48.761 126.125 50.5859 126.125C52.4109 126.125 53.8672 127.593 53.8672 129.375Z" stroke="#4B67A7" stroke-width="5"/>
<path d="M144.922 129.375C144.922 131.157 143.465 132.625 141.641 132.625C139.816 132.625 138.359 131.157 138.359 129.375C138.359 127.593 139.816 126.125 141.641 126.125C143.465 126.125 144.922 127.593 144.922 129.375Z" stroke="#4B67A7" stroke-width="5"/>
<path d="M54.8854 41.314L54.9039 41.3125H116.348C116.576 41.3125 116.738 41.4931 116.738 41.6875V65.4062V67.9062H119.238H143.371C145.576 67.9062 147.61 69.074 148.712 70.961L159.212 88.9479L159.935 90.1875H161.371H166.934C170.355 90.1875 173.105 92.9424 173.105 96.3125V122.906C173.105 126.276 170.355 129.031 166.934 129.031H158.744H156.631L156.279 131.115C155.105 138.081 149.004 143.406 141.641 143.406C134.277 143.406 128.177 138.081 127.002 131.115L126.65 129.031H124.537H67.6899H65.5763L65.2247 131.115C64.0497 138.081 57.9491 143.406 50.5859 143.406C43.2228 143.406 37.1221 138.081 35.9471 131.115L35.5956 129.031H33.482H14.4531C14.2246 129.031 14.0625 128.851 14.0625 128.656V109.25C14.0625 107.468 15.5188 106 17.3438 106H25.3475C29.3096 106 32.5447 102.802 32.5447 98.8281C32.5447 94.917 29.3716 91.5657 25.3475 91.5657H12.0297C11.9444 91.4942 11.8945 91.3891 11.8945 91.2812C11.8945 91.1727 11.9451 91.0669 12.0313 90.9955L42.644 90.9062L45.1765 90.8989L45.1679 90.3567C47.9315 89.2401 49.8885 86.5419 49.8885 83.375C49.8885 79.4063 46.8038 75.8438 42.6367 75.8438C42.4081 75.8438 42.2461 75.6631 42.2461 75.4688C42.2461 75.2744 42.4081 75.0938 42.6367 75.0938H55.3377H57.8869L57.8739 74.4294C60.8227 73.1703 62.8963 70.2552 62.8963 66.8438C62.8963 63.3234 60.6882 60.3311 57.5883 59.1422L57.5809 58.5938H55.1145H28.1836C27.955 58.5938 27.793 58.4131 27.793 58.2188C27.793 58.0244 27.955 57.8438 28.1836 57.8438H67.9842C72.3453 57.8438 75.9041 54.3238 75.9041 49.9531C75.9041 45.5824 72.3453 42.0625 67.9842 42.0625H54.9108L54.9023 42.0621C54.6845 42.0527 54.5312 41.8761 54.5312 41.6875C54.5312 41.5036 54.6769 41.331 54.8854 41.314ZM127.854 95.2181L127.882 95.2188H127.91H145.615C146.282 95.2188 146.942 95.0953 147.563 94.8549C147.564 94.8549 147.564 94.8548 147.564 94.8547L156.413 91.4324L159.15 90.3741L157.67 87.8403L148.03 71.3272L148.03 71.3269C147.062 69.6693 145.285 68.6562 143.371 68.6562H119.238H116.738V71.1562V92.5232V94.9675L119.182 95.0226L127.854 95.2181ZM50.5859 142.656C58.3397 142.656 64.6484 136.401 64.6484 128.656C64.6484 120.911 58.3397 114.656 50.5859 114.656C42.8322 114.656 36.5234 120.911 36.5234 128.656C36.5234 136.401 42.8322 142.656 50.5859 142.656ZM141.641 142.656C149.394 142.656 155.703 136.401 155.703 128.656C155.703 120.911 149.394 114.656 141.641 114.656C133.887 114.656 127.578 120.911 127.578 128.656C127.578 136.401 133.887 142.656 141.641 142.656ZM124.297 95.25C121.332 95.25 118.906 97.6437 118.906 100.625C118.906 103.606 121.332 106 124.297 106H126.465C129.429 106 131.855 103.606 131.855 100.625C131.855 97.6437 129.429 95.25 126.465 95.25H124.297Z" stroke="#4B67A7" stroke-width="5"/>
<path d="M33.2422 75.8438H18.0664C17.8378 75.8438 17.6758 75.6631 17.6758 75.4688C17.6758 75.2744 17.8378 75.0938 18.0664 75.0938H33.2422C33.4708 75.0938 33.6328 75.2744 33.6328 75.4688C33.6328 75.6631 33.4708 75.8438 33.2422 75.8438Z" stroke="#4B67A7" stroke-width="5"/>
<path d="M45.1953 41.6875C45.1953 41.8819 45.0333 42.0625 44.8047 42.0625H42.6367C42.4081 42.0625 42.2461 41.8819 42.2461 41.6875C42.2461 41.4931 42.4081 41.3125 42.6367 41.3125H44.8047C45.0333 41.3125 45.1953 41.4931 45.1953 41.6875Z" stroke="#4B67A7" stroke-width="5"/>
</svg>
